<?xml version="1.0" encoding="UTF-8"?><svg xmlns="http://www.w3.org/2000/svg" xmlns:xlink="http://www.w3.org/1999/xlink" fill-opacity="1" color-rendering="auto" color-interpolation="auto" text-rendering="auto" stroke="black" stroke-linecap="square" width="488" stroke-miterlimit="10" shape-rendering="auto" stroke-opacity="1" fill="black" stroke-dasharray="none" font-weight="normal" stroke-width="1" height="1280" font-family="'Dialog'" font-style="normal" stroke-linejoin="miter" font-size="12px" stroke-dashoffset="0" image-rendering="auto">
  <!--Generated by ySVG 2.6-->
  <defs id="genericDefs"/>
  <g>
    <defs id="defs1">
      <clipPath clipPathUnits="userSpaceOnUse" id="clipPath1">
        <path d="M0 0 L488 0 L488 1280 L0 1280 L0 0 Z"/>
      </clipPath>
      <clipPath clipPathUnits="userSpaceOnUse" id="clipPath2">
        <path d="M-1999 279 L-1511 279 L-1511 1559 L-1999 1559 L-1999 279 Z"/>
      </clipPath>
    </defs>
    <g fill="white" text-rendering="geometricPrecision" shape-rendering="geometricPrecision" transform="translate(1999,-279)" stroke="white">
      <rect x="-1999" width="488" height="1280" y="279" clip-path="url(#clipPath2)" stroke="none"/>
    </g>
    <g fill="rgb(51,51,51)" text-rendering="geometricPrecision" shape-rendering="geometricPrecision" transform="matrix(1,0,0,1,1999,-279)" stroke="rgb(51,51,51)">
      <rect x="-1983.987" y="294.6739" clip-path="url(#clipPath2)" width="243.5198" rx="4" ry="4" height="30" stroke="none"/>
    </g>
    <g stroke-linecap="butt" transform="matrix(1,0,0,1,1999,-279)" fill="white" text-rendering="geometricPrecision" font-family="sans-serif" shape-rendering="geometricPrecision" stroke="white" stroke-miterlimit="1.45">
      <text x="-1961.9331" xml:space="preserve" y="313.8282" clip-path="url(#clipPath2)" stroke="none">Software Development Principles</text>
    </g>
    <g fill="rgb(51,51,51)" text-rendering="geometricPrecision" shape-rendering="geometricPrecision" transform="matrix(1,0,0,1,1999,-279)" stroke="rgb(51,51,51)">
      <rect x="-1680.7218" y="1187.2294" clip-path="url(#clipPath2)" width="130" rx="4" ry="4" height="30" stroke="none"/>
    </g>
    <g stroke-linecap="butt" transform="matrix(1,0,0,1,1999,-279)" fill="white" text-rendering="geometricPrecision" font-family="sans-serif" shape-rendering="geometricPrecision" stroke="white" stroke-miterlimit="1.45">
      <text x="-1677.8488" xml:space="preserve" y="1206.3837" clip-path="url(#clipPath2)" stroke="none">Single Responsibility</text>
    </g>
    <g fill="rgb(51,51,51)" text-rendering="geometricPrecision" shape-rendering="geometricPrecision" transform="matrix(1,0,0,1,1999,-279)" stroke="rgb(51,51,51)">
      <rect x="-1680.7218" y="1268.876" clip-path="url(#clipPath2)" width="130" rx="4" ry="4" height="30" stroke="none"/>
    </g>
    <g stroke-linecap="butt" transform="matrix(1,0,0,1,1999,-279)" fill="white" text-rendering="geometricPrecision" font-family="sans-serif" shape-rendering="geometricPrecision" stroke="white" stroke-miterlimit="1.45">
      <text x="-1653.922" xml:space="preserve" y="1288.0303" clip-path="url(#clipPath2)" stroke="none">Open/Closed</text>
    </g>
    <g fill="rgb(51,51,51)" text-rendering="geometricPrecision" shape-rendering="geometricPrecision" transform="matrix(1,0,0,1,1999,-279)" stroke="rgb(51,51,51)">
      <rect x="-1680.7218" y="1350.5227" clip-path="url(#clipPath2)" width="130" rx="4" ry="4" height="30" stroke="none"/>
    </g>
    <g stroke-linecap="butt" transform="matrix(1,0,0,1,1999,-279)" fill="white" text-rendering="geometricPrecision" font-family="sans-serif" shape-rendering="geometricPrecision" stroke="white" stroke-miterlimit="1.45">
      <text x="-1672.6749" xml:space="preserve" y="1369.677" clip-path="url(#clipPath2)" stroke="none">Liskov Substitution</text>
    </g>
    <g fill="rgb(51,51,51)" text-rendering="geometricPrecision" shape-rendering="geometricPrecision" transform="matrix(1,0,0,1,1999,-279)" stroke="rgb(51,51,51)">
      <rect x="-1680.7218" y="1432.1693" clip-path="url(#clipPath2)" width="154.4577" rx="4" ry="4" height="30" stroke="none"/>
    </g>
    <g stroke-linecap="butt" transform="matrix(1,0,0,1,1999,-279)" fill="white" text-rendering="geometricPrecision" font-family="sans-serif" shape-rendering="geometricPrecision" stroke="white" stroke-miterlimit="1.45">
      <text x="-1668.7078" xml:space="preserve" y="1451.3236" clip-path="url(#clipPath2)" stroke="none">Interface Segregation</text>
    </g>
    <g fill="rgb(51,51,51)" text-rendering="geometricPrecision" shape-rendering="geometricPrecision" transform="matrix(1,0,0,1,1999,-279)" stroke="rgb(51,51,51)">
      <rect x="-1680.7218" y="1513.8159" clip-path="url(#clipPath2)" width="154.4577" rx="4" ry="4" height="30" stroke="none"/>
    </g>
    <g stroke-linecap="butt" transform="matrix(1,0,0,1,1999,-279)" fill="white" text-rendering="geometricPrecision" font-family="sans-serif" shape-rendering="geometricPrecision" stroke="white" stroke-miterlimit="1.45">
      <text x="-1670.7146" xml:space="preserve" y="1532.9702" clip-path="url(#clipPath2)" stroke="none">Dependency Inversion</text>
    </g>
    <g fill="rgb(51,51,51)" text-rendering="geometricPrecision" shape-rendering="geometricPrecision" transform="matrix(1,0,0,1,1999,-279)" stroke="rgb(51,51,51)">
      <rect x="-1822.2762" y="1099.3531" clip-path="url(#clipPath2)" width="207.4962" rx="4" ry="4" height="30" stroke="none"/>
    </g>
    <g stroke-linecap="butt" transform="matrix(1,0,0,1,1999,-279)" fill="white" text-rendering="geometricPrecision" font-family="sans-serif" shape-rendering="geometricPrecision" stroke="white" stroke-miterlimit="1.45">
      <text x="-1744.4207" xml:space="preserve" y="1118.5074" clip-path="url(#clipPath2)" stroke="none">S.O.L.I.D</text>
    </g>
    <g fill="rgb(51,51,51)" text-rendering="geometricPrecision" shape-rendering="geometricPrecision" transform="matrix(1,0,0,1,1999,-279)" stroke="rgb(51,51,51)">
      <rect x="-1822.2762" y="379.3531" clip-path="url(#clipPath2)" width="207.4962" rx="4" ry="4" height="30" stroke="none"/>
    </g>
    <g stroke-linecap="butt" transform="matrix(1,0,0,1,1999,-279)" fill="white" text-rendering="geometricPrecision" font-family="sans-serif" shape-rendering="geometricPrecision" stroke="white" stroke-miterlimit="1.45">
      <text x="-1761.2927" xml:space="preserve" y="398.5074" clip-path="url(#clipPath2)" stroke="none">Keep it simple</text>
    </g>
    <g fill="rgb(51,51,51)" text-rendering="geometricPrecision" shape-rendering="geometricPrecision" transform="matrix(1,0,0,1,1999,-279)" stroke="rgb(51,51,51)">
      <rect x="-1822.2762" y="439.3531" clip-path="url(#clipPath2)" width="207.4962" rx="4" ry="4" height="30" stroke="none"/>
    </g>
    <g stroke-linecap="butt" transform="matrix(1,0,0,1,1999,-279)" fill="white" text-rendering="geometricPrecision" font-family="sans-serif" shape-rendering="geometricPrecision" stroke="white" stroke-miterlimit="1.45">
      <text x="-1820.033" xml:space="preserve" y="458.5074" clip-path="url(#clipPath2)" stroke="none">You Aren't Gonna Need It (YAGNI)</text>
    </g>
    <g fill="rgb(51,51,51)" text-rendering="geometricPrecision" shape-rendering="geometricPrecision" transform="matrix(1,0,0,1,1999,-279)" stroke="rgb(51,51,51)">
      <rect x="-1822.2762" y="499.3531" clip-path="url(#clipPath2)" width="207.4962" rx="4" ry="4" height="30" stroke="none"/>
    </g>
    <g stroke-linecap="butt" transform="matrix(1,0,0,1,1999,-279)" fill="white" text-rendering="geometricPrecision" font-family="sans-serif" shape-rendering="geometricPrecision" stroke="white" stroke-miterlimit="1.45">
      <text x="-1806.1667" xml:space="preserve" y="518.5074" clip-path="url(#clipPath2)" stroke="none">Measure Twice and Cut Once</text>
    </g>
    <g fill="rgb(51,51,51)" text-rendering="geometricPrecision" shape-rendering="geometricPrecision" transform="matrix(1,0,0,1,1999,-279)" stroke="rgb(51,51,51)">
      <rect x="-1822.2762" y="559.3531" clip-path="url(#clipPath2)" width="207.4962" rx="4" ry="4" height="30" stroke="none"/>
    </g>
    <g stroke-linecap="butt" transform="matrix(1,0,0,1,1999,-279)" fill="white" text-rendering="geometricPrecision" font-family="sans-serif" shape-rendering="geometricPrecision" stroke="white" stroke-miterlimit="1.45">
      <text x="-1803.3308" xml:space="preserve" y="578.5074" clip-path="url(#clipPath2)" stroke="none">Don’t Repeat Yourself (DRY)</text>
    </g>
    <g fill="rgb(51,51,51)" text-rendering="geometricPrecision" shape-rendering="geometricPrecision" transform="matrix(1,0,0,1,1999,-279)" stroke="rgb(51,51,51)">
      <rect x="-1822.2762" y="619.3531" clip-path="url(#clipPath2)" width="207.4962" rx="4" ry="4" height="30" stroke="none"/>
    </g>
    <g stroke-linecap="butt" transform="matrix(1,0,0,1,1999,-279)" fill="white" text-rendering="geometricPrecision" font-family="sans-serif" shape-rendering="geometricPrecision" stroke="white" stroke-miterlimit="1.45">
      <text x="-1763.1853" xml:space="preserve" y="638.5074" clip-path="url(#clipPath2)" stroke="none">Occam's Razor</text>
    </g>
    <g fill="rgb(51,51,51)" text-rendering="geometricPrecision" shape-rendering="geometricPrecision" transform="matrix(1,0,0,1,1999,-279)" stroke="rgb(51,51,51)">
      <rect x="-1822.2762" y="679.3531" clip-path="url(#clipPath2)" width="207.4962" rx="4" ry="4" height="30" stroke="none"/>
    </g>
    <g stroke-linecap="butt" transform="matrix(1,0,0,1,1999,-279)" fill="white" text-rendering="geometricPrecision" font-family="sans-serif" shape-rendering="geometricPrecision" stroke="white" stroke-miterlimit="1.45">
      <text x="-1801.6697" xml:space="preserve" y="698.5074" clip-path="url(#clipPath2)" stroke="none">Big Design Up Front (BDUF)</text>
    </g>
    <g fill="rgb(51,51,51)" text-rendering="geometricPrecision" shape-rendering="geometricPrecision" transform="matrix(1,0,0,1,1999,-279)" stroke="rgb(51,51,51)">
      <rect x="-1822.2762" y="739.3531" clip-path="url(#clipPath2)" width="207.4962" rx="4" ry="4" height="30" stroke="none"/>
    </g>
    <g stroke-linecap="butt" transform="matrix(1,0,0,1,1999,-279)" fill="white" text-rendering="geometricPrecision" font-family="sans-serif" shape-rendering="geometricPrecision" stroke="white" stroke-miterlimit="1.45">
      <text x="-1809.1375" xml:space="preserve" y="758.5074" clip-path="url(#clipPath2)" stroke="none">Avoid Premature Optimization</text>
    </g>
    <g fill="rgb(51,51,51)" text-rendering="geometricPrecision" shape-rendering="geometricPrecision" transform="matrix(1,0,0,1,1999,-279)" stroke="rgb(51,51,51)">
      <rect x="-1822.2762" y="799.3531" clip-path="url(#clipPath2)" width="207.4962" rx="4" ry="4" height="30" stroke="none"/>
    </g>
    <g stroke-linecap="butt" transform="matrix(1,0,0,1,1999,-279)" fill="white" text-rendering="geometricPrecision" font-family="sans-serif" shape-rendering="geometricPrecision" stroke="white" stroke-miterlimit="1.45">
      <text x="-1777.9685" xml:space="preserve" y="818.5074" clip-path="url(#clipPath2)" stroke="none">Least Astonishment</text>
    </g>
    <g fill="rgb(51,51,51)" text-rendering="geometricPrecision" shape-rendering="geometricPrecision" transform="matrix(1,0,0,1,1999,-279)" stroke="rgb(51,51,51)">
      <rect x="-1822.2762" y="859.3531" clip-path="url(#clipPath2)" width="207.4962" rx="4" ry="4" height="30" stroke="none"/>
    </g>
    <g stroke-linecap="butt" transform="matrix(1,0,0,1,1999,-279)" fill="white" text-rendering="geometricPrecision" font-family="sans-serif" shape-rendering="geometricPrecision" stroke="white" stroke-miterlimit="1.45">
      <text x="-1744.8865" xml:space="preserve" y="878.5074" clip-path="url(#clipPath2)" stroke="none">Demeter</text>
    </g>
    <g fill="rgb(51,51,51)" text-rendering="geometricPrecision" shape-rendering="geometricPrecision" transform="matrix(1,0,0,1,1999,-279)" stroke="rgb(51,51,51)">
      <rect x="-1822.2762" y="919.3531" clip-path="url(#clipPath2)" width="207.4962" rx="4" ry="4" height="30" stroke="none"/>
    </g>
    <g stroke-linecap="butt" transform="matrix(1,0,0,1,1999,-279)" fill="white" text-rendering="geometricPrecision" font-family="sans-serif" shape-rendering="geometricPrecision" stroke="white" stroke-miterlimit="1.45">
      <text x="-1779.3015" xml:space="preserve" y="938.5074" clip-path="url(#clipPath2)" stroke="none">Reusability Principle</text>
    </g>
    <g fill="rgb(51,51,51)" text-rendering="geometricPrecision" shape-rendering="geometricPrecision" transform="matrix(1,0,0,1,1999,-279)" stroke="rgb(51,51,51)">
      <rect x="-1822.2762" y="979.3531" clip-path="url(#clipPath2)" width="207.4962" rx="4" ry="4" height="30" stroke="none"/>
    </g>
    <g stroke-linecap="butt" transform="matrix(1,0,0,1,1999,-279)" fill="white" text-rendering="geometricPrecision" font-family="sans-serif" shape-rendering="geometricPrecision" stroke="white" stroke-miterlimit="1.45">
      <text x="-1786.3679" xml:space="preserve" y="998.5074" clip-path="url(#clipPath2)" stroke="none">Low Coupling Principle</text>
    </g>
    <g fill="rgb(51,51,51)" text-rendering="geometricPrecision" shape-rendering="geometricPrecision" transform="matrix(1,0,0,1,1999,-279)" stroke="rgb(51,51,51)">
      <rect x="-1822.2762" y="1039.3531" clip-path="url(#clipPath2)" width="207.4962" rx="4" ry="4" height="30" stroke="none"/>
    </g>
    <g stroke-linecap="butt" transform="matrix(1,0,0,1,1999,-279)" fill="white" text-rendering="geometricPrecision" font-family="sans-serif" shape-rendering="geometricPrecision" stroke="white" stroke-miterlimit="1.45">
      <text x="-1763.4197" xml:space="preserve" y="1058.5074" clip-path="url(#clipPath2)" stroke="none">Decomposition</text>
      <path fill="none" d="M-1862.2271 324.6536 L-1862.2271 1114.3531 L-1830.2678 1114.3531" clip-path="url(#clipPath2)" stroke="black"/>
      <path fill="black" d="M-1822.2678 1114.3531 L-1834.2678 1109.3531 L-1831.2678 1114.3531 L-1834.2678 1119.3531 Z" clip-path="url(#clipPath2)" stroke="none"/>
      <path fill="none" d="M-1718.5281 1129.3281 L-1718.5281 1202.2294 L-1688.7036 1202.2294" clip-path="url(#clipPath2)" stroke="black"/>
      <path fill="black" d="M-1680.7036 1202.2294 L-1692.7036 1197.2294 L-1689.7036 1202.2294 L-1692.7036 1207.2294 Z" clip-path="url(#clipPath2)" stroke="none"/>
      <path fill="none" d="M-1718.5281 1129.3767 L-1718.5281 1283.876 L-1688.7036 1283.876" clip-path="url(#clipPath2)" stroke="black"/>
      <path fill="black" d="M-1680.7036 1283.876 L-1692.7036 1278.876 L-1689.7036 1283.876 L-1692.7036 1288.876 Z" clip-path="url(#clipPath2)" stroke="none"/>
      <path fill="none" d="M-1718.5281 1129.3459 L-1718.5281 1365.5227 L-1688.7036 1365.5227" clip-path="url(#clipPath2)" stroke="black"/>
      <path fill="black" d="M-1680.7036 1365.5227 L-1692.7036 1360.5227 L-1689.7036 1365.5227 L-1692.7036 1370.5227 Z" clip-path="url(#clipPath2)" stroke="none"/>
      <path fill="none" d="M-1718.5281 1129.3445 L-1718.5281 1447.1693 L-1688.698 1447.1693" clip-path="url(#clipPath2)" stroke="black"/>
      <path fill="black" d="M-1680.698 1447.1693 L-1692.698 1442.1693 L-1689.698 1447.1693 L-1692.698 1452.1693 Z" clip-path="url(#clipPath2)" stroke="none"/>
      <path fill="none" d="M-1718.5281 1129.3541 L-1718.5281 1528.8159 L-1688.698 1528.8159" clip-path="url(#clipPath2)" stroke="black"/>
      <path fill="black" d="M-1680.698 1528.8159 L-1692.698 1523.8159 L-1689.698 1528.8159 L-1692.698 1533.8159 Z" clip-path="url(#clipPath2)" stroke="none"/>
      <path fill="none" d="M-1862.2271 324.6829 L-1862.2271 394.3531 L-1830.2678 394.3531" clip-path="url(#clipPath2)" stroke="black"/>
      <path fill="black" d="M-1822.2678 394.3531 L-1834.2678 389.3531 L-1831.2678 394.3531 L-1834.2678 399.3531 Z" clip-path="url(#clipPath2)" stroke="none"/>
      <path fill="none" d="M-1862.2271 324.6858 L-1862.2271 454.3531 L-1830.2678 454.3531" clip-path="url(#clipPath2)" stroke="black"/>
      <path fill="black" d="M-1822.2678 454.3531 L-1834.2678 449.3531 L-1831.2678 454.3531 L-1834.2678 459.3531 Z" clip-path="url(#clipPath2)" stroke="none"/>
      <path fill="none" d="M-1862.2271 324.715 L-1862.2271 514.3531 L-1830.2678 514.3531" clip-path="url(#clipPath2)" stroke="black"/>
      <path fill="black" d="M-1822.2678 514.3531 L-1834.2678 509.3531 L-1831.2678 514.3531 L-1834.2678 519.3531 Z" clip-path="url(#clipPath2)" stroke="none"/>
      <path fill="none" d="M-1862.2271 324.6978 L-1862.2271 574.3531 L-1830.2678 574.3531" clip-path="url(#clipPath2)" stroke="black"/>
      <path fill="black" d="M-1822.2678 574.3531 L-1834.2678 569.3531 L-1831.2678 574.3531 L-1834.2678 579.3531 Z" clip-path="url(#clipPath2)" stroke="none"/>
      <path fill="none" d="M-1862.2271 324.695 L-1862.2271 634.3531 L-1830.2678 634.3531" clip-path="url(#clipPath2)" stroke="black"/>
      <path fill="black" d="M-1822.2678 634.3531 L-1834.2678 629.3531 L-1831.2678 634.3531 L-1834.2678 639.3531 Z" clip-path="url(#clipPath2)" stroke="none"/>
      <path fill="none" d="M-1862.2271 324.6534 L-1862.2271 694.3531 L-1830.2678 694.3531" clip-path="url(#clipPath2)" stroke="black"/>
      <path fill="black" d="M-1822.2678 694.3531 L-1834.2678 689.3531 L-1831.2678 694.3531 L-1834.2678 699.3531 Z" clip-path="url(#clipPath2)" stroke="none"/>
      <path fill="none" d="M-1862.2271 324.6829 L-1862.2271 754.3531 L-1830.2678 754.3531" clip-path="url(#clipPath2)" stroke="black"/>
      <path fill="black" d="M-1822.2678 754.3531 L-1834.2678 749.3531 L-1831.2678 754.3531 L-1834.2678 759.3531 Z" clip-path="url(#clipPath2)" stroke="none"/>
      <path fill="none" d="M-1862.2271 324.675 L-1862.2271 814.3531 L-1830.2678 814.3531" clip-path="url(#clipPath2)" stroke="black"/>
      <path fill="black" d="M-1822.2678 814.3531 L-1834.2678 809.3531 L-1831.2678 814.3531 L-1834.2678 819.3531 Z" clip-path="url(#clipPath2)" stroke="none"/>
      <path fill="none" d="M-1862.2271 324.6663 L-1862.2271 874.3531 L-1830.2678 874.3531" clip-path="url(#clipPath2)" stroke="black"/>
      <path fill="black" d="M-1822.2678 874.3531 L-1834.2678 869.3531 L-1831.2678 874.3531 L-1834.2678 879.3531 Z" clip-path="url(#clipPath2)" stroke="none"/>
      <path fill="none" d="M-1862.2271 324.6579 L-1862.2271 934.3531 L-1830.2678 934.3531" clip-path="url(#clipPath2)" stroke="black"/>
      <path fill="black" d="M-1822.2678 934.3531 L-1834.2678 929.3531 L-1831.2678 934.3531 L-1834.2678 939.3531 Z" clip-path="url(#clipPath2)" stroke="none"/>
      <path fill="none" d="M-1862.2271 324.6763 L-1862.2271 994.3531 L-1830.2678 994.3531" clip-path="url(#clipPath2)" stroke="black"/>
      <path fill="black" d="M-1822.2678 994.3531 L-1834.2678 989.3531 L-1831.2678 994.3531 L-1834.2678 999.3531 Z" clip-path="url(#clipPath2)" stroke="none"/>
      <path fill="none" d="M-1862.2271 324.7184 L-1862.2271 1054.3531 L-1830.2678 1054.3531" clip-path="url(#clipPath2)" stroke="black"/>
      <path fill="black" d="M-1822.2678 1054.3531 L-1834.2678 1049.3531 L-1831.2678 1054.3531 L-1834.2678 1059.3531 Z" clip-path="url(#clipPath2)" stroke="none"/>
    </g>
  </g>
</svg>
